<svg width="16" height="16" viewBox="0 0 16 16" fill="none" xmlns="http://www.w3.org/2000/svg">
  <path fill-rule="evenodd" clip-rule="evenodd" d="M8 0C3.58 0 0 3.58 0 8C0 11.54 2.29 14.47 5.47 15.5C5.87 15.58 6.03 15.32 6.03 15.11V13.87C3.9 14.28 3.41 12.97 3.41 12.97C3.05 12.14 2.49 11.91 2.49 11.91C1.74 11.41 2.54 11.42 2.54 11.42C3.34 11.48 3.76 12.27 3.76 12.27C4.47 13.4 5.63 13.05 6.05 12.84C6.12 12.31 6.33 11.97 6.57 11.75C4.78 11.53 2.92 10.82 2.92 7.7C2.92 6.8 3.27 6.07 3.83 5.53C3.74 5.31 3.43 4.48 3.92 3.37C3.92 3.37 4.62 3.16 6.02 4.13C6.67 3.96 7.35 3.88 8.03 3.88C8.71 3.88 9.39 3.96 10.04 4.13C11.44 3.16 12.14 3.37 12.14 3.37C12.63 4.48 12.32 5.31 12.22 5.53C12.79 6.07 13.13 6.8 13.13 7.7C13.13 10.83 11.26 11.52 9.47 11.75C9.78 12.05 10.07 12.65 10.07 13.59V15.11C10.07 15.32 10.23 15.59 10.63 15.5C13.71 14.47 16 11.54 16 8C16 3.58 12.42 0 8 0Z" fill="white"/>
</svg>
